<svg class="text__title" width="274" height="37" viewBox="0 0 274 37" fill="none" xmlns="http://www.w3.org/2000/svg">
    <g filter="url(#filter0_i_21_6)">
    <path d="M25.7 34.55C24.6333 35.3167 23.2667 35.8667 21.6 36.2C19.9667 36.5333 18.2833 36.7 16.55 36.7C14.45 36.7 12.45 36.3833 10.55 35.75C8.68333 35.0833 7.03333 34.0333 5.6 32.6C4.16667 31.1333 3.01667 29.25 2.15 26.95C1.31667 24.6167 0.9 21.8 0.9 18.5C0.9 15.0667 1.36667 12.2 2.3 9.9C3.26667 7.56667 4.5 5.7 6 4.3C7.53333 2.86667 9.23333 1.85 11.1 1.25C12.9667 0.616664 14.8333 0.299998 16.7 0.299998C18.7 0.299998 20.3833 0.433331 21.75 0.699998C23.15 0.966666 24.3 1.28333 25.2 1.65L23.85 7.45C23.0833 7.08333 22.1667 6.81667 21.1 6.65C20.0667 6.48333 18.8 6.4 17.3 6.4C14.5333 6.4 12.3 7.38333 10.6 9.35C8.93333 11.3167 8.1 14.3667 8.1 18.5C8.1 20.3 8.3 21.95 8.7 23.45C9.1 24.9167 9.7 26.1833 10.5 27.25C11.3333 28.2833 12.35 29.1 13.55 29.7C14.7833 30.2667 16.2 30.55 17.8 30.55C19.3 30.55 20.5667 30.4 21.6 30.1C22.6333 29.8 23.5333 29.4167 24.3 28.95L25.7 34.55ZM27.1695 18.5C27.1695 12.6667 28.4529 8.18333 31.0195 5.05C33.5862 1.88333 37.2529 0.299998 42.0195 0.299998C44.5195 0.299998 46.7029 0.733331 48.5695 1.6C50.4362 2.46666 51.9862 3.7 53.2195 5.3C54.4529 6.9 55.3695 8.81666 55.9695 11.05C56.5695 13.2833 56.8695 15.7667 56.8695 18.5C56.8695 24.3333 55.5695 28.8333 52.9695 32C50.4029 35.1333 46.7529 36.7 42.0195 36.7C39.4862 36.7 37.2862 36.2667 35.4195 35.4C33.5529 34.5333 32.0029 33.3 30.7695 31.7C29.5695 30.1 28.6695 28.1833 28.0695 25.95C27.4695 23.7167 27.1695 21.2333 27.1695 18.5ZM34.3695 18.5C34.3695 20.2667 34.5195 21.9 34.8195 23.4C35.1195 24.8667 35.5695 26.1333 36.1695 27.2C36.8029 28.2667 37.6029 29.1 38.5695 29.7C39.5362 30.3 40.6862 30.6 42.0195 30.6C44.4529 30.6 46.3362 29.65 47.6695 27.75C49.0029 25.85 49.6695 22.7667 49.6695 18.5C49.6695 16.8 49.5195 15.2167 49.2195 13.75C48.9529 12.2833 48.5195 11 47.9195 9.9C47.3195 8.8 46.5362 7.95 45.5695 7.35C44.6029 6.71667 43.4195 6.4 42.0195 6.4C39.5862 6.4 37.7029 7.38333 36.3695 9.35C35.0362 11.2833 34.3695 14.3333 34.3695 18.5ZM61.7656 0.999998C62.4656 0.899999 63.249 0.816666 64.1156 0.749998C65.0156 0.683332 65.9323 0.633333 66.8656 0.6C67.799 0.566665 68.699 0.549997 69.5656 0.549997C70.4656 0.516665 71.2656 0.499998 71.9656 0.499998C75.0656 0.499998 77.7156 0.933332 79.9156 1.8C82.1156 2.66666 83.899 3.88333 85.2656 5.45C86.6323 7.01667 87.6323 8.88333 88.2656 11.05C88.899 13.2167 89.2156 15.6 89.2156 18.2C89.2156 20.5667 88.9156 22.85 88.3156 25.05C87.7156 27.25 86.7156 29.2 85.3156 30.9C83.9156 32.6 82.0656 33.9667 79.7656 35C77.499 36.0333 74.6823 36.55 71.3156 36.55C70.7823 36.55 70.0656 36.5333 69.1656 36.5C68.299 36.4667 67.3823 36.4167 66.4156 36.35C65.4823 36.3167 64.5823 36.2667 63.7156 36.2C62.849 36.1667 62.199 36.1167 61.7656 36.05V0.999998ZM72.5156 6.6C71.7823 6.6 71.0323 6.61667 70.2656 6.65C69.5323 6.68333 68.9823 6.73333 68.6156 6.8V30.25C68.749 30.2833 68.9656 30.3167 69.2656 30.35C69.599 30.35 69.949 30.3667 70.3156 30.4C70.6823 30.4 71.0323 30.4167 71.3656 30.45C71.699 30.45 71.949 30.45 72.1156 30.45C74.049 30.45 75.649 30.1167 76.9156 29.45C78.2156 28.75 79.2323 27.8333 79.9656 26.7C80.7323 25.5667 81.2656 24.2667 81.5656 22.8C81.8656 21.3 82.0156 19.7667 82.0156 18.2C82.0156 16.8333 81.8823 15.4667 81.6156 14.1C81.349 12.7 80.849 11.45 80.1156 10.35C79.4156 9.25 78.449 8.35 77.2156 7.65C75.9823 6.95 74.4156 6.6 72.5156 6.6ZM100.146 23L88.6461 0.999998H96.7961L103.196 14.15L103.896 17.85H104.146L104.896 14.05L111.096 0.999998H118.446L106.996 22.95V36H100.146V23ZM147.715 26.6C147.715 25.5333 147.315 24.6667 146.515 24C145.749 23.3333 144.765 22.7333 143.565 22.2C142.399 21.6333 141.115 21.0667 139.715 20.5C138.349 19.9 137.065 19.1833 135.865 18.35C134.699 17.4833 133.715 16.4167 132.915 15.15C132.149 13.8833 131.765 12.2667 131.765 10.3C131.765 8.6 132.049 7.13333 132.615 5.9C133.182 4.63333 133.982 3.58333 135.015 2.75C136.082 1.91666 137.332 1.3 138.765 0.899999C140.199 0.499998 141.799 0.299998 143.565 0.299998C145.599 0.299998 147.515 0.483332 149.315 0.85C151.115 1.18333 152.599 1.68333 153.765 2.35L151.615 8.1C150.882 7.63333 149.782 7.21667 148.315 6.85C146.849 6.45 145.265 6.25 143.565 6.25C141.965 6.25 140.732 6.56667 139.865 7.2C139.032 7.83333 138.615 8.68333 138.615 9.75C138.615 10.75 138.999 11.5833 139.765 12.25C140.565 12.9167 141.549 13.5333 142.715 14.1C143.915 14.6667 145.199 15.25 146.565 15.85C147.965 16.45 149.249 17.1833 150.415 18.05C151.615 18.8833 152.599 19.9333 153.365 21.2C154.165 22.4333 154.565 23.9833 154.565 25.85C154.565 27.7167 154.249 29.3333 153.615 30.7C153.015 32.0333 152.149 33.15 151.015 34.05C149.915 34.95 148.565 35.6167 146.965 36.05C145.399 36.4833 143.665 36.7 141.765 36.7C139.265 36.7 137.065 36.4667 135.165 36C133.265 35.5333 131.865 35.0667 130.965 34.6L133.165 28.75C133.532 28.95 133.999 29.1667 134.565 29.4C135.165 29.6333 135.832 29.85 136.565 30.05C137.299 30.25 138.065 30.4167 138.865 30.55C139.699 30.6833 140.549 30.75 141.415 30.75C143.449 30.75 144.999 30.4167 146.065 29.75C147.165 29.05 147.715 28 147.715 26.6ZM178.779 21.35H165.979V36H159.129V0.999998H165.979V15.25H178.779V0.999998H185.629V36H178.779V21.35ZM208.947 28.25H198.197L195.547 36H188.697L201.297 0.749998H206.347L218.947 36H211.747L208.947 28.25ZM199.947 22.75H207.447L204.847 14.95L203.797 9.45H203.547L202.497 15L199.947 22.75ZM221.971 1.35C222.737 1.21667 223.554 1.1 224.421 0.999998C225.321 0.866664 226.204 0.766664 227.071 0.699998C227.971 0.633333 228.837 0.583332 229.671 0.549997C230.504 0.516665 231.271 0.499998 231.971 0.499998C233.604 0.499998 235.204 0.649998 236.771 0.949998C238.371 1.25 239.787 1.76667 241.021 2.5C242.287 3.23333 243.287 4.25 244.021 5.55C244.787 6.81666 245.171 8.41667 245.171 10.35C245.171 13.2167 244.504 15.55 243.171 17.35C241.837 19.15 240.054 20.4 237.821 21.1L240.271 22.65L248.271 36H240.371L232.421 22.3L228.821 21.65V36H221.971V1.35ZM232.471 6.6C231.771 6.6 231.071 6.61667 230.371 6.65C229.704 6.68333 229.187 6.75 228.821 6.85V17H231.721C233.621 17 235.137 16.5667 236.271 15.7C237.404 14.8333 237.971 13.4 237.971 11.4C237.971 9.9 237.504 8.73333 236.571 7.9C235.637 7.03333 234.271 6.6 232.471 6.6ZM252.049 0.999998H272.799V7.1H258.899V15.25H271.549V21.35H258.899V29.9H273.049V36H252.049V0.999998Z" fill="#F3F3F3"/>
    </g>
    <defs>
    <filter id="filter0_i_21_6" x="-3.1001" y="0.299988" width="276.149" height="38.4" filterUnits="userSpaceOnUse" color-interpolation-filters="sRGB">
    <feFlood flood-opacity="0" result="BackgroundImageFix"/>
    <feBlend mode="normal" in="SourceGraphic" in2="BackgroundImageFix" result="shape"/>
    <feColorMatrix in="SourceAlpha" type="matrix" values="0 0 0 0 0 0 0 0 0 0 0 0 0 0 0 0 0 0 127 0" result="hardAlpha"/>
    <feOffset dx="-4" dy="2"/>
    <feGaussianBlur stdDeviation="2"/>
    <feComposite in2="hardAlpha" operator="arithmetic" k2="-1" k3="1"/>
    <feColorMatrix type="matrix" values="0 0 0 0 0 0 0 0 0 0 0 0 0 0 0 0 0 0 0.25 0"/>
    <feBlend mode="normal" in2="shape" result="effect1_innerShadow_21_6"/>
    </filter>
    </defs>
    </svg>       